# xmcd
#
# Track frame offsets: 
#        150
#        10208
#        21935
#        35794
#        47012
#        57399
#        70184
#        81143
#        93121
#        104605
#        114248
#        132542
#        149747
#        167587
#        185466
#        203784
#        222274
#        241101
#        263823
#        284721
#
# Disc length: 4036 seconds
#
# Revision: 3
# Processed by: cddbd v1.5.2PL0 Copyright (c) Steve Scherf et al.
# Submitted via: ExactAudioCopy v1.3
#
DISCID=2b0fc214
DTITLE=Flatt and Scruggs - 1959 - 1963 [CD4)
DYEAR=1997
DGENRE=Bluegrass
TTITLE0=Pearl, Pearl, Pearl
TTITLE1=What About You
TTITLE2=Rambling Gambler
TTITLE3=Mama Don't Allow
TTITLE4=I'm Troubled
TTITLE5=My Saro Jane
TTITLE6=The Train That Carried My Girl From Town
TTITLE7=Little Birdie
TTITLE8=You Are My Flower
TTITLE9=Po' Rebel Soldier
TTITLE10=Old Joe Clark
TTITLE11=Sally Goodin
TTITLE12=Black Mountain Rag
TTITLE13=Billy In The Lowground
TTITLE14=Twinkle Little Star
TTITLE15=Old Fiddler
TTITLE16=Soldier's Joy
TTITLE17=Georgia Shuffle
TTITLE18=Golden Slippers
TTITLE19=Tennessee Wagner
EXTD=
EXTT0=
EXTT1=
EXTT2=
EXTT3=
EXTT4=
EXTT5=
EXTT6=
EXTT7=
EXTT8=
EXTT9=
EXTT10=
EXTT11=
EXTT12=
EXTT13=
EXTT14=
EXTT15=
EXTT16=
EXTT17=
EXTT18=
EXTT19=
PLAYORDER=
